<svg xmlns="http://www.w3.org/2000/svg" viewBox="0 0 60 75" x="0px" y="0px">
  <path d="M30.193,48.2l-.9-.135-.407-.854a2.092,2.092,0,0,0-3.794,0l-.407.853L23.8,48.2a2.113,2.113,0,0,0-1.691,1.437,2.168,2.168,0,0,0,.514,2.218l.668.674-.159.962A2.15,2.15,0,0,0,24,55.611a2.064,2.064,0,0,0,2.2.132l.791-.431.792.431a2.062,2.062,0,0,0,2.2-.132,2.147,2.147,0,0,0,.874-2.121l-.158-.962.668-.675a2.166,2.166,0,0,0,.513-2.217A2.112,2.112,0,0,0,30.193,48.2Zm-.246,2.247L28.92,51.484a1,1,0,0,0-.275.867l.242,1.465c.014.091-.025.14-.144.171l-1.27-.692a1,1,0,0,0-.957,0l-1.355.686a.155.155,0,0,1-.059-.164l.243-1.465a1,1,0,0,0-.277-.869l-1.027-1.037a.169.169,0,0,1-.036-.179c.026-.08.072-.087.09-.089l1.42-.214a1,1,0,0,0,.754-.56L26.9,48.07c.047-.1.135-.1.182,0h0l.636,1.334a1,1,0,0,0,.753.559l1.421.214c.016,0,.061.009.087.089A.167.167,0,0,1,29.947,50.446Z"/>
  <path d="M42.193,48.2l-.895-.135-.407-.854a2.092,2.092,0,0,0-3.794,0l-.407.853L35.8,48.2a2.113,2.113,0,0,0-1.691,1.437,2.168,2.168,0,0,0,.514,2.218l.668.674-.159.962A2.15,2.15,0,0,0,36,55.611a2.064,2.064,0,0,0,2.2.132l.791-.431.792.431a2.062,2.062,0,0,0,2.2-.132,2.147,2.147,0,0,0,.874-2.121l-.158-.962.668-.675a2.166,2.166,0,0,0,.513-2.217A2.112,2.112,0,0,0,42.193,48.2Zm-.246,2.247L40.92,51.484a1,1,0,0,0-.275.867l.242,1.465c.014.091-.025.14-.144.171l-1.27-.692a1,1,0,0,0-.957,0l-1.355.686a.155.155,0,0,1-.059-.164l.243-1.465a1,1,0,0,0-.277-.869l-1.027-1.037a.169.169,0,0,1-.036-.179c.026-.08.072-.087.09-.089l1.42-.214a1,1,0,0,0,.754-.56L38.9,48.07c.047-.1.135-.1.182,0h0l.636,1.334a1,1,0,0,0,.753.559l1.421.214c.016,0,.061.009.087.089A.167.167,0,0,1,41.947,50.446Z"/>
  <path d="M54.193,48.2l-.895-.135-.407-.854a2.092,2.092,0,0,0-3.794,0l-.407.853L47.8,48.2a2.113,2.113,0,0,0-1.691,1.437,2.168,2.168,0,0,0,.514,2.218l.668.674-.159.962A2.15,2.15,0,0,0,48,55.611a2.064,2.064,0,0,0,2.2.132l.791-.431.792.431a2.062,2.062,0,0,0,2.2-.132,2.147,2.147,0,0,0,.874-2.121l-.158-.962.668-.675a2.166,2.166,0,0,0,.513-2.217A2.112,2.112,0,0,0,54.193,48.2Zm-.246,2.247L52.92,51.484a1,1,0,0,0-.275.867l.242,1.465c.014.091-.025.14-.144.171l-1.27-.692a1,1,0,0,0-.957,0l-1.355.686a.155.155,0,0,1-.059-.164l.243-1.465a1,1,0,0,0-.277-.869l-1.027-1.037a.169.169,0,0,1-.036-.179c.026-.08.072-.087.09-.089l1.42-.214a1,1,0,0,0,.754-.56L50.9,48.07c.047-.1.135-.1.182,0h0l.636,1.334a1,1,0,0,0,.753.559l1.421.214c.016,0,.061.009.087.089A.167.167,0,0,1,53.947,50.446Z"/>
  <path d="M57,42H44V3a3,3,0,0,0-3-3H5A5.006,5.006,0,0,0,0,5V51a5.006,5.006,0,0,0,5,5H18v1a3,3,0,0,0,3,3H57a3,3,0,0,0,3-3V45A3,3,0,0,0,57,42ZM42,3V42H21a3,3,0,0,0-3,3v1H6V2H41A1,1,0,0,1,42,3ZM4,2.184V46.1a4.954,4.954,0,0,0-2,.925V5A3,3,0,0,1,4,2.184ZM5,54a3,3,0,0,1,0-6H18v2H9a1,1,0,0,0,0,2h9v2Zm53,3a1,1,0,0,1-1,1H21a1,1,0,0,1-1-1V45a1,1,0,0,1,1-1H57a1,1,0,0,1,1,1Z"/>
  <path d="M12,22H36a2,2,0,0,0,2-2V10a2,2,0,0,0-2-2H12a2,2,0,0,0-2,2V20A2,2,0,0,0,12,22Zm0-12H36l0,10H12Z"/>
  <path d="M34,25H14a1,1,0,0,0,0,2H34a1,1,0,0,0,0-2Z"/>
  <path d="M29,29H19a1,1,0,0,0,0,2H29a1,1,0,0,0,0-2Z"/>
</svg>
